<?xml version="1.0" standalone="no"?>
<!DOCTYPE svg PUBLIC "-//W3C//DTD SVG 20010904//EN"
 "http://www.w3.org/TR/2001/REC-SVG-20010904/DTD/svg10.dtd">
<svg version="1.0" xmlns="http://www.w3.org/2000/svg"
 width="192.000000pt" height="192.000000pt" viewBox="0 0 192.000000 192.000000"
 preserveAspectRatio="xMidYMid meet">
<metadata>
Created by potrace 1.14, written by Peter Selinger 2001-2017
</metadata>
<g transform="translate(0.000000,192.000000) scale(0.100000,-0.100000)"
fill="#000000" stroke="none">
<path d="M120 1893 c-34 -18 -65 -44 -84 -71 l-31 -44 0 -816 0 -817 23 -36
c29 -47 77 -84 127 -98 60 -16 1563 -15 1619 1 63 19 121 83 136 149 8 39 10
267 8 834 l-3 780 -23 36 c-29 47 -77 84 -127 98 -28 7 -284 11 -816 11 l-775
0 -54 -27z"/>
</g>
</svg>
